<?xml version="1.0" encoding="utf-8"?>
<!DOCTYPE svg PUBLIC "-//W3C//DTD SVG 1.1//EN" "http://www.w3.org/Graphics/SVG/1.1/DTD/svg11.dtd">
<svg version="1.1" xmlns="http://www.w3.org/2000/svg" xmlns:xlink="http://www.w3.org/1999/xlink" x="0px" y="0px" viewBox="0 0 256 256" enable-background="new 0 0 256 256" xml:space="preserve" stroke="black" stroke-width="10">
<metadata> Svg Vector Icons : http://www.onlinewebfonts.com/icon </metadata>
<g><g><g><path fill="#000000" d="M60.1,11.1c-3.6,2.5-3.4-3.3-3.4,117.1c0,105,0.1,111.7,1.2,113.9c1.4,2.9,4.1,4.2,7.3,3.6c2.1-0.4,6.5-4.5,32.6-30.5L128,185l29.9,29.8c16.3,16.3,30.5,30.1,31.2,30.5c3.8,1.9,8.2-0.1,9.4-4.4c0.9-3.4,0.9-222.4,0-225.7c-0.4-1.3-1.4-3-2.4-3.8c-1.6-1.3-2.2-1.3-68-1.3C67.8,10,61.5,10.1,60.1,11.1z M185.3,123.2v100.1l-26.8-26.8c-14.8-14.8-27.7-27.2-28.7-27.5c-1.3-0.5-2.4-0.5-3.6,0c-1.1,0.3-13.9,12.7-28.7,27.5l-26.9,26.8V123.2v-100H128h57.4V123.2z"/></g></g></g>
</svg>