<?xml version="1.0" encoding="utf-8"?>
<!DOCTYPE svg PUBLIC "-//W3C//DTD SVG 1.1//EN" "http://www.w3.org/Graphics/SVG/1.1/DTD/svg11.dtd">
<svg version="1.1" xmlns="http://www.w3.org/2000/svg" xmlns:xlink="http://www.w3.org/1999/xlink" x="0px" y="0px" viewBox="0 0 256 256" enable-background="new 0 0 256 256" xml:space="preserve">
<metadata> Svg Vector Icons : http://www.onlinewebfonts.com/icon </metadata>
<g><g><g><path fill="#000000" d="M125.5,16.2c-0.9,0.2-2.3,0.7-3,1.1S96.7,42.4,66.8,72.1C9.5,129.4,10,128.8,10,133.9c0,4.3,2.8,8.5,6.9,10.4c1.9,0.9,3.8,1.1,15.3,1.1h13.1l0.2,38.3l0.2,38.4l2,4.2c3.4,7.1,9.4,11.8,16.8,13.3c2.2,0.4,8.3,0.6,18.3,0.4c13.9-0.2,15.2-0.3,18-1.4c4.4-1.8,8.3-4.9,10.9-8.9c3.9-5.9,4-6.6,4-29v-19.8H128h12.1l0.2,20.9l0.2,20.9l1.7,3.6c3.2,6.8,8.6,11.2,15.6,13c2.9,0.8,6.2,0.9,19.2,0.7l15.6-0.2l4.2-2c5.4-2.7,9-6.3,11.5-11.5l2-4.2l0.2-38.4l0.2-38.3h13.1c11.5,0,13.4-0.2,15.3-1.1c4.1-1.8,6.9-6.3,6.9-10.9c0-4.5-0.2-4.8-56.8-61.3c-29.9-29.8-55-54.5-55.9-54.9C131.1,16.1,127.6,15.7,125.5,16.2z M167.3,82.9l38.9,39l-5.3,0.2c-6.8,0.3-9.8,1.9-12.1,6.5l-1.6,3v42.5v42.5h-11.9h-11.9v-24c0-27-0.1-27.8-3.7-31.5c-3.6-3.7-4.4-3.8-31.7-3.8c-27.4,0-28.1,0.1-31.7,3.8c-3.6,3.7-3.7,4.5-3.7,31.5v24H80.6H68.7v-42.5c0-41.6-0.1-42.5-1.2-45c-2.3-5.1-5.2-6.7-12.6-7.1l-5.2-0.3l38.9-38.9c21.4-21.4,39.1-39,39.3-39S145.8,61.5,167.3,82.9z"/></g></g></g>
</svg>