<?xml version="1.0" encoding="utf-8"?>
<!DOCTYPE svg PUBLIC "-//W3C//DTD SVG 1.1//EN" "http://www.w3.org/Graphics/SVG/1.1/DTD/svg11.dtd">
<svg version="1.1" xmlns="http://www.w3.org/2000/svg" xmlns:xlink="http://www.w3.org/1999/xlink" x="0px" y="0px" viewBox="0 0 256 256" enable-background="new 0 0 256 256" xml:space="preserve" stroke="black" stroke-width="10">
<metadata> Svg Vector Icons : http://www.onlinewebfonts.com/icon </metadata>
<g><g><path fill="#000000" d="M128.9,24.2c8.3,0,15.2,1.7,20.5,5.2c4.1,2.6,7.4,6.4,9.9,11.1c4.7,8.9,5.1,18.4,5.1,19.2c0,1.2-0.3,17.5-5.7,33.2c-2.9,8.5-6.7,15.2-11.3,19.7c-2.4,2.4-5,4.1-7.8,5.3c-3.2,1.3-6.7,2-10.7,2c-4,0-7.5-0.6-10.7-2c-2.9-1.2-5.4-2.9-7.9-5.3c-4.6-4.5-8.4-11.1-11.3-19.7c-5.5-16-5.7-32.6-5.7-33.3c0-0.3,0.3-9.6,4.7-18.4c2.5-5,5.8-8.9,9.9-11.6C113.3,26,120.4,24.2,128.9,24.2 M128,158.9c19.7,0,36.4,2.7,49.6,8.1c10.5,4.3,18.9,10.4,25,18.1c4.2,5.3,7.3,11.4,9.5,18.3c1.8,5.7,2.8,12,3.1,18.6c0.2,3.6,0.1,6.9-0.1,9.8H40.9c-0.2-2.6-0.3-5.7-0.1-9c0.2-6.7,1.2-13.1,3-18.9c2.1-7,5.3-13.3,9.5-18.7c6.1-7.7,14.5-13.8,25-18.2C91.4,161.6,108.2,158.9,128,158.9 M128.9,10c-49.7,0-49.7,49.6-49.7,49.6s0,74.4,49.7,74.4c49.7,0,49.7-74.4,49.7-74.4S178.6,10,128.9,10L128.9,10z M128,144.7C3.7,144.7,28.5,246,28.5,246h198.9C227.5,246,252.3,144.7,128,144.7L128,144.7z"/></g></g>
</svg>